<?xml version="1.0" standalone="no"?><!DOCTYPE svg PUBLIC "-//W3C//DTD SVG 1.1//EN" "http://www.w3.org/Graphics/SVG/1.1/DTD/svg11.dtd"><svg t="1553506106826" class="icon" style="" viewBox="0 0 1024 1024" version="1.1" xmlns="http://www.w3.org/2000/svg" p-id="7253" xmlns:xlink="http://www.w3.org/1999/xlink" width="200" height="200"><defs><style type="text/css"></style></defs><path d="M512 42.666667C251.733333 42.666667 42.666667 253.866667 42.666667 512c0 260.266667 209.066667 469.333333 469.333333 469.333333 258.133333 0 469.333333-209.066667 469.333333-469.333333 0-258.133333-211.2-469.333333-469.333333-469.333333z m0 853.333333c-211.2 0-384-172.8-384-384S300.8 128 512 128s384 172.8 384 384-172.8 384-384 384z" fill="#323333" p-id="7254"></path><path d="M358.4 505.6c-8.533333-4.266667-23.466667-8.533333-46.933333-12.8-23.466667-4.266667-36.266667-10.666667-42.666667-14.933333-6.4-4.266667-8.533333-10.666667-8.533333-19.2s4.266667-17.066667 12.8-23.466667c8.533333-6.4 21.333333-8.533333 38.4-8.533333s29.866667 4.266667 36.266666 10.666666 12.8 17.066667 14.933334 29.866667l27.733333-2.133333c0-12.8-4.266667-23.466667-10.666667-34.133334s-14.933333-17.066667-27.733333-23.466666c-12.8-4.266667-25.6-8.533333-42.666667-8.533334-14.933333 0-27.733333 2.133333-38.4 6.4s-21.333333 12.8-27.733333 21.333334c-6.4 8.533333-8.533333 19.2-8.533333 29.866666 0 10.666667 2.133333 19.2 8.533333 25.6 4.266667 8.533333 12.8 14.933333 23.466667 19.2 8.533333 4.266667 21.333333 8.533333 40.533333 12.8 19.2 4.266667 32 8.533333 38.4 10.666667 8.533333 4.266667 14.933333 8.533333 19.2 12.8 4.266667 4.266667 6.4 10.666667 6.4 17.066667 0 6.4-2.133333 12.8-6.4 19.2-4.266667 6.4-10.666667 10.666667-19.2 12.8s-21.333333 10.666667-32 10.666666c-12.8 0-23.466667-2.133333-32-6.4-10.666667-4.266667-17.066667-10.666667-21.333333-17.066666-4.266667-6.4-8.533333-14.933333-8.533334-25.6l-27.733333 2.133333c0 14.933333 4.266667 27.733333 12.8 38.4 6.4 10.666667 17.066667 19.2 29.866667 25.6s29.866667 8.533333 49.066666 8.533333c14.933333 0 29.866667-2.133333 40.533334-8.533333 12.8-6.4 21.333333-12.8 27.733333-23.466667 6.4-10.666667 10.666667-21.333333 10.666667-32s-2.133333-21.333333-8.533334-29.866666c-6.4-10.666667-17.066667-17.066667-27.733333-23.466667zM603.733333 405.333333h-38.4l-106.666666 106.666667v-106.666667h-27.733334v213.333334h27.733334v-74.666667l36.266666-34.133333 76.8 108.8h36.266667l-93.866667-128zM772.266667 405.333333v123.733334c0 27.733333-4.266667 44.8-12.8 53.333333s-23.466667 14.933333-44.8 14.933333c-12.8 0-23.466667-2.133333-29.866667-6.4s-14.933333-10.666667-17.066667-21.333333c-6.4-8.533333-6.4-23.466667-6.4-40.533333V405.333333h-27.733333v123.733334c0 23.466667 2.133333 40.533333 8.533333 53.333333 6.4 12.8 14.933333 23.466667 27.733334 29.866667s29.866667 10.666667 49.066666 10.666666c21.333333 0 36.266667-4.266667 49.066667-12.8 12.8-8.533333 21.333333-19.2 25.6-29.866666s6.4-29.866667 6.4-51.2V405.333333h-27.733333z" fill="#323333" p-id="7255"></path></svg>