<?xml version="1.0" standalone="no"?><!DOCTYPE svg PUBLIC "-//W3C//DTD SVG 1.1//EN" "http://www.w3.org/Graphics/SVG/1.1/DTD/svg11.dtd"><svg t="1553505362047" class="icon" style="" viewBox="0 0 1024 1024" version="1.1" xmlns="http://www.w3.org/2000/svg" p-id="4001" xmlns:xlink="http://www.w3.org/1999/xlink" width="200" height="200"><defs><style type="text/css"></style></defs><path d="M64.60757333 830.7664466v129.24670103h79.53643142v-79.53643141h328.08777955v79.53643141h79.5364314v-79.53643141h328.08777955v79.53643141h79.53643142V830.7664466zM929.56626489 452.96839742H551.7682157v99.42053925h29.82616178v248.55134815h318.14572563V552.38893667h29.82616178V452.96839742z m-59.65232356 318.14572563H611.42053925V552.38893667h258.49340208v218.72518638z m29.82616178-248.55134816H581.59437748v-39.7682157h318.14572563v39.7682157zM700.89902459 75.17034822H323.10097541v99.42053926h29.82616177v248.55134815h318.14572564V174.59088748h29.82616177V75.17034822z m-59.65232356 318.14572563H382.75329897V174.59088748h258.49340206v218.72518637z m29.82616179-248.55134814H352.92713718V104.99651h318.14572564v39.76821571zM472.2317843 452.96839742H94.43373511v99.42053925h29.82616178v248.55134815h318.14572563V552.38893667h29.82616178V452.96839742z m-59.65232355 318.14572563H154.08605867V552.38893667h258.49340208v218.72518638z m29.82616177-248.55134816H124.25989689v-39.7682157h318.14572563v39.7682157z" p-id="4002"></path></svg>